<svg width="17" height="17" viewBox="0 0 17 17" fill="none" xmlns="http://www.w3.org/2000/svg">
<path d="M8.5 16.7261C6.22961 16.7261 4.09501 15.8562 2.48959 14.2766C0.884163 12.697 0 10.5968 0 8.36304C0 6.12923 0.884163 4.02902 2.48959 2.44947C4.09501 0.869916 6.22961 0 8.5 0C10.7704 0 12.905 0.869916 14.5104 2.44947C16.1158 4.02902 17 6.12923 17 8.36304C17 10.5968 16.1158 12.697 14.5104 14.2766C12.905 15.8562 10.7704 16.7261 8.5 16.7261ZM8.5 1.30672C4.54546 1.30672 1.32812 4.47221 1.32812 8.36304C1.32812 12.2539 4.54546 15.4193 8.5 15.4193C12.4545 15.4193 15.6719 12.2539 15.6719 8.36304C15.6719 4.47221 12.4545 1.30672 8.5 1.30672ZM11.9983 11.8049L11.0591 10.8809C9.64797 12.2693 7.35203 12.2693 5.9409 10.8809C4.52976 9.49251 4.52976 7.23356 5.9409 5.84517C7.35203 4.45677 9.64797 4.45677 11.0591 5.84517L11.9983 4.92114C10.0692 3.02333 6.93063 3.02333 5.00174 4.92114C3.07285 6.81909 3.07285 9.90712 5.00174 11.8049C5.96619 12.7538 7.23309 13.2283 8.5 13.2283C9.76678 13.2283 11.0338 12.7538 11.9983 11.8049Z" fill="url(#paint0_linear)"/>
<defs>
<linearGradient id="paint0_linear" x1="8.5" y1="0" x2="8.5" y2="16.7261" gradientUnits="userSpaceOnUse">
<stop offset="0.9999" stop-color="white"/>
<stop offset="1" stop-color="white" stop-opacity="0"/>
</linearGradient>
</defs>
</svg>
