<svg width="22" height="34" viewBox="0 0 22 34" fill="none" xmlns="http://www.w3.org/2000/svg">
<path d="M11 0C4.93457 0 0 5.46804 0 12.1891C0 20.5302 9.84392 32.7755 10.263 33.2927C10.6567 33.7785 11.344 33.7777 11.737 33.2927C12.1561 32.7755 22 20.5302 22 12.1891C21.9999 5.46804 17.0654 0 11 0ZM11 18.3218C7.94833 18.3218 5.46568 15.5707 5.46568 12.1891C5.46568 8.80756 7.94839 6.05651 11 6.05651C14.0516 6.05651 16.5343 8.80762 16.5343 12.1892C16.5343 15.5708 14.0516 18.3218 11 18.3218Z" fill="#E763EA"/>
</svg>
