<svg width="22" height="25" viewBox="0 0 22 25" fill="none" xmlns="http://www.w3.org/2000/svg">
<path d="M21.4231 18.1138L18.3465 14.6694C17.2477 13.4393 15.3797 13.9314 14.9402 15.5305C14.6106 16.6377 13.5118 17.2528 12.5229 17.0067C10.3253 16.3916 7.35853 13.1933 6.80913 10.61C6.47949 9.50278 7.13877 8.27264 8.12768 7.90365C9.55612 7.41159 9.99563 5.32036 8.89684 4.09022L5.82021 0.645824C4.94118 -0.215275 3.62262 -0.215275 2.85347 0.645824L0.765758 2.98309C-1.32195 5.44337 0.985517 11.9631 6.14985 17.7448C11.3142 23.5264 17.1378 26.2328 19.3354 23.7725L21.4231 21.4352C22.1923 20.4511 22.1923 18.9749 21.4231 18.1138Z" fill="#E763EA"/>
</svg>
