<svg width="22" height="22" viewBox="0 0 22 22" fill="none" xmlns="http://www.w3.org/2000/svg">
<path d="M11 0C4.93438 0 0 4.93438 0 11C0 17.0656 4.93438 22 11 22C17.0656 22 22 17.0656 22 11C22 4.93438 17.0656 0 11 0ZM11 18.8116C6.69246 18.8116 3.18841 15.3075 3.18841 11C3.18841 6.69246 6.69246 3.18841 11 3.18841C15.3075 3.18841 18.8116 6.69246 18.8116 11C18.8116 15.3075 15.3075 18.8116 11 18.8116ZM16.5249 11.5618C16.5249 12.4424 15.8113 13.156 14.9307 13.156H11C10.1194 13.156 9.4058 12.4424 9.4058 11.5618V6.50754C9.4058 5.6269 10.1194 4.91333 11 4.91333C11.8806 4.91333 12.5942 5.6269 12.5942 6.50754V9.96759H14.9307C15.8113 9.96759 16.5249 10.6812 16.5249 11.5618Z" fill="#E763EA"/>
</svg>
