<svg width="22" height="25" viewBox="0 0 22 25" fill="none" xmlns="http://www.w3.org/2000/svg">
<path d="M11 0.0991211C4.92077 0.0991211 0 5.53802 0 12.2598C0 18.9804 4.91979 24.4204 11 24.4204C13.1359 24.4204 15.2289 23.7271 17.006 22.4481C17.5385 22.0649 17.6547 21.2571 17.2523 20.7136L16.8009 20.104C16.4606 19.6445 15.8615 19.5319 15.4093 19.8525C14.1013 20.7799 12.5663 21.2822 11 21.2822C6.49985 21.2822 2.83871 17.2347 2.83871 12.2598C2.83871 7.28479 6.49985 3.23735 11 3.23735C15.4416 3.23735 19.1613 6.06269 19.1613 11.0829C19.1613 12.9848 18.2257 14.9931 16.5812 15.1868C15.8117 15.1645 15.8311 14.5564 15.9834 13.7146L17.0228 7.77597C17.1499 7.04981 16.6467 6.37558 15.9777 6.37558H13.9826C13.8353 6.37558 13.6931 6.43553 13.5832 6.54399C13.4734 6.65245 13.4034 6.80184 13.3868 6.96366L13.3864 6.96817C12.7345 6.0904 11.5923 5.90043 10.7264 5.90043C7.41839 5.90043 4.6129 8.95207 4.6129 13.3273C4.6129 16.5294 6.2445 18.5186 8.87097 18.5186C10.0678 18.5186 11.4156 17.7518 12.1972 16.6389C12.6195 18.3112 13.9986 18.3112 15.3335 18.3112C20.1641 18.3112 22 14.7997 22 11.0829C22 4.39717 17.122 0.0991211 11 0.0991211ZM10.0384 15.0268C9.05154 15.0268 8.43851 14.2607 8.43851 13.0276C8.43851 10.8214 9.80371 9.46135 11.039 9.46135C12.0278 9.46135 12.6181 10.2087 12.6181 11.4605C12.6181 13.6701 11.1156 15.0268 10.0384 15.0268Z" fill="#E763EA"/>
</svg>
